<svg width="27" height="29" viewBox="0 0 27 29" fill="none" xmlns="http://www.w3.org/2000/svg">
<path d="M27 0L24.5402 26.097L13.4835 29L2.45716 26.1011L0 0H27Z" fill="#264DE4"/>
<path d="M22.4344 24.4352L24.5364 2.13415H13.5V26.781L22.4344 24.4352Z" fill="#2965F1"/>
<path d="M5.633 11.8147L5.93595 15.0158H13.5V11.8147H5.633Z" fill="#EBEBEB"/>
<path d="M13.5 5.33537H13.4883H5.02427L5.33153 8.53659H13.5V5.33537Z" fill="#EBEBEB"/>
<path d="M13.5 23.4591V20.1285L13.4852 20.1322L9.72073 19.1695L9.48008 16.6165H6.08697L6.56052 21.6428L13.4844 23.4632L13.5 23.4591Z" fill="#EBEBEB"/>
<path d="M17.6506 15.0158L17.2582 19.1675L13.4883 20.1312V23.4616L20.4177 21.6428L21.2629 12.6743L21.3453 11.8147L21.9556 5.33537H13.4883L13.4883 8.53659H18.2512L17.9437 11.8147H13.4883V15.0158H17.6506Z" fill="white"/>
</svg>
