<svg width="27" height="30" viewBox="0 0 27 30" fill="none" xmlns="http://www.w3.org/2000/svg">
<path d="M27 0H0L2.51553 26.9408L13.5168 30L24.4845 26.9408L27 0Z" fill="#D5A238"/>
<path d="M13.5168 2.20395V27.6974L22.405 25.2303L24.5516 2.20395H13.5168Z" fill="#E4BD38"/>
<path d="M20.5938 5.49342H6.90932L5.97019 15.5921V15.5263H17.5752L17.2062 19.8026L13.5168 20.8224L9.76025 19.7697L9.52547 17.2039H6.10435L6.60745 22.3355L13.5168 24.2763L20.4261 22.3355L21.3652 12.2368H9.0559L9.19006 8.84868H17.7429L17.877 10.7895H21.3317L20.5938 5.49342Z" fill="white"/>
<path d="M13.5168 5.49342H6.90932L5.97019 15.5921L6.00373 15.5263H13.5503V12.2368H9.52547L9.69317 8.84868H13.5168V5.49342ZM9.52547 17.2039H6.10435L6.60745 22.3684L13.5168 24.2763V20.8224L9.76025 19.7697L9.52547 17.2039Z" fill="#EAEAEA"/>
</svg>
