<svg width="97" height="24" viewBox="0 0 97 24" fill="none" xmlns="http://www.w3.org/2000/svg">
<g clip-path="url(#clip0_38_166)">
<path d="M19.1991 11.9379C17.8318 11.9359 16.509 12.4238 15.4705 13.3133L1.68872 23.6912L18.7125 23.4L19.8776 23.3803C21.3258 23.2003 22.6512 22.4757 23.5845 21.3538C24.5177 20.2318 24.9889 18.7967 24.9022 17.3399C24.8156 15.8831 24.1776 14.5139 23.1178 13.5106C22.0581 12.5072 20.6562 11.9449 19.1968 11.9379H19.1991ZM19.1991 22.2915C18.287 22.2915 17.3954 22.0211 16.637 21.5143C15.8786 21.0076 15.2876 20.2874 14.9385 19.4447C14.5895 18.602 14.4981 17.6748 14.6761 16.7802C14.854 15.8856 15.2932 15.0639 15.9382 14.419C16.5831 13.774 17.4049 13.3348 18.2994 13.1569C19.194 12.9789 20.1212 13.0702 20.9639 13.4193C21.8066 13.7683 22.5268 14.3594 23.0336 15.1178C23.5403 15.8762 23.8108 16.7678 23.8108 17.6799C23.8108 18.2855 23.6915 18.8852 23.4597 19.4447C23.228 20.0042 22.8883 20.5126 22.46 20.9408C22.0318 21.369 21.5234 21.7087 20.9639 21.9405C20.4044 22.1723 19.8047 22.2915 19.1991 22.2915Z" fill="white"/>
<path d="M19.2003 21.5957C21.3629 21.5957 23.1161 19.8426 23.1161 17.6799C23.1161 15.5172 21.3629 13.764 19.2003 13.764C17.0376 13.764 15.2844 15.5172 15.2844 17.6799C15.2844 19.8426 17.0376 21.5957 19.2003 21.5957Z" fill="white"/>
<path d="M10.2693 4.70488C9.3797 5.33568 8.74572 6.2645 8.48242 7.32277L4.32153 20.4342L15.2485 12.3771L15.9963 11.8269C16.8589 11.0417 17.3894 9.95693 17.4795 8.79392C17.5696 7.6309 17.2124 6.47736 16.4809 5.56873C15.7494 4.66009 14.6987 4.06487 13.5433 3.90455C12.3878 3.74423 11.2148 4.0309 10.2635 4.70604L10.2693 4.70488ZM15.0601 11.4316C14.4676 11.8532 13.7634 12.0895 13.0365 12.1108C12.3097 12.1321 11.5928 11.9374 10.9766 11.5513C10.3604 11.1652 9.87257 10.6051 9.57473 9.94169C9.2769 9.27832 9.18246 8.54153 9.30337 7.82449C9.42428 7.10745 9.7551 6.44237 10.254 5.91334C10.7529 5.38432 11.3975 5.01511 12.1062 4.85242C12.8149 4.68972 13.556 4.74084 14.2357 4.99931C14.9153 5.25778 15.5031 5.71199 15.9246 6.30451C16.2045 6.69793 16.4042 7.14262 16.5122 7.6132C16.6202 8.08378 16.6345 8.57103 16.5542 9.04713C16.4739 9.52323 16.3007 9.97885 16.0443 10.388C15.7879 10.7971 15.4535 11.1518 15.0601 11.4316Z" fill="white"/>
<path d="M12.9243 11.5577C14.6484 11.5577 16.0461 10.16 16.0461 8.43591C16.0461 6.71177 14.6484 5.31409 12.9243 5.31409C11.2002 5.31409 9.80249 6.71177 9.80249 8.43591C9.80249 10.16 11.2002 11.5577 12.9243 11.5577Z" fill="white"/>
<path d="M0.851819 3.09481C0.557964 3.94794 0.580525 4.87827 0.915388 5.71616L4.44983 16.5113L7.89412 5.83752L8.12528 5.10705C8.32812 4.16378 8.16264 3.17865 7.66274 2.35342C7.16283 1.52819 6.36634 0.925316 5.43637 0.668265C4.50641 0.411214 3.51336 0.519442 2.6606 0.970782C1.80784 1.42212 1.15991 2.18242 0.849507 3.09596L0.851819 3.09481ZM7.30235 5.29776C7.10772 5.86567 6.7491 6.36314 6.27183 6.7273C5.79455 7.09146 5.22003 7.30595 4.62088 7.34369C4.02173 7.38142 3.42484 7.24069 2.90565 6.93928C2.38646 6.63788 1.96827 6.18933 1.70394 5.65032C1.4396 5.11131 1.34098 4.50604 1.42054 3.911C1.5001 3.31596 1.75428 2.75786 2.15094 2.30723C2.5476 1.85661 3.06894 1.53368 3.64908 1.37927C4.22922 1.22485 4.84211 1.24588 5.4103 1.4397C5.7882 1.56828 6.13702 1.77018 6.43676 2.03382C6.73649 2.29746 6.98126 2.61765 7.15703 2.97605C7.33279 3.33446 7.4361 3.72402 7.46104 4.12243C7.48598 4.52083 7.43205 4.92024 7.30235 5.29776Z" fill="white"/>
<path d="M4.43022 6.89401C5.8537 6.89401 7.00766 5.74005 7.00766 4.31657C7.00766 2.89309 5.8537 1.73914 4.43022 1.73914C3.00674 1.73914 1.85278 2.89309 1.85278 4.31657C1.85278 5.74005 3.00674 6.89401 4.43022 6.89401Z" fill="white"/>
<path d="M27.5186 23.9075L29.6475 13.8069H32.7L32.2377 15.9948H36.4957C36.7904 15.9948 36.9938 15.9486 37.1082 15.855C37.2415 15.7255 37.3295 15.5565 37.359 15.373L37.7058 13.726C37.7428 13.6088 37.763 13.4871 37.7659 13.3642C37.773 13.3015 37.7637 13.238 37.739 13.1798C37.7143 13.1217 37.675 13.071 37.6249 13.0325C37.475 12.9604 37.3087 12.9293 37.1429 12.9424H29.8475L30.3907 10.3118H39.0465C39.74 10.3118 40.2408 10.4354 40.5491 10.6828C40.8573 10.9301 41.0114 11.3085 41.0114 11.8178C41.0106 11.9459 41.0005 12.0737 40.9813 12.2003C40.9605 12.3333 40.9374 12.4743 40.9108 12.6211L40.3722 15.1708C40.2505 15.7332 40.0363 16.1451 39.7296 16.4063C39.3976 16.6772 38.9915 16.8416 38.5645 16.8779C38.9018 16.9017 39.2285 17.0051 39.5181 17.1795C39.7654 17.3402 39.8902 17.6002 39.8902 17.962C39.8902 18.0292 39.8868 18.0963 39.8798 18.1631C39.8729 18.2302 39.8625 18.2972 39.8498 18.3642L39.1667 21.6005C39.0064 22.3772 38.7152 22.9551 38.2929 23.3342C37.8707 23.7133 37.2315 23.904 36.3755 23.9063L27.5186 23.9075ZM36.7569 18.6613C36.7696 18.5942 36.78 18.533 36.7869 18.4798C36.7934 18.4331 36.7969 18.386 36.7973 18.3388C36.7973 18.1654 36.743 18.0522 36.6367 17.9978C36.4768 17.9354 36.3053 17.9082 36.1339 17.9181H31.8366L31.1339 21.2318H35.4312C35.7386 21.2318 35.9571 21.1809 36.0842 21.0804C36.2113 20.9798 36.3084 20.7695 36.3755 20.4481L36.7569 18.6613Z" fill="white"/>
<path d="M41.335 23.9074L49.2279 12.9019H42.6214L43.1634 10.3105H52.9034L52.4815 12.3586L44.4683 23.9074H41.335Z" fill="white"/>
<path d="M63.3459 23.9074L62.8443 14.2068L57.9044 23.9074H54.4902L53.9678 10.3105H57.1L57.3219 20.2724L62.2421 10.3105H65.2946L65.7165 20.2504L70.3559 10.3105H73.3482L66.781 23.9074H63.3459Z" fill="white"/>
<path d="M73.6293 23.9074C73.0537 23.9074 72.6418 23.8103 72.3937 23.6161C72.1456 23.4219 72.0219 23.1187 72.0227 22.7065C72.0314 22.4427 72.0651 22.1803 72.1233 21.9228L73.4282 15.7335C73.5746 15.0508 73.8188 14.55 74.1609 14.231C74.5031 13.912 75.0424 13.7513 75.7791 13.749H82.648C83.1566 13.749 83.5206 13.8473 83.7425 14.0403C83.9645 14.2333 84.0731 14.5257 84.0731 14.9141C84.0722 15.1639 84.0455 15.4129 83.9933 15.6572L83.1496 19.654H76.3801L76.7268 17.9665H80.823L81.1247 16.6015C81.1391 16.5152 81.1457 16.4278 81.1443 16.3403C81.1492 16.2989 81.1435 16.2569 81.1277 16.2183C81.112 16.1797 81.0866 16.1457 81.0541 16.1196C80.9513 16.0704 80.8372 16.0496 80.7236 16.0595H76.6817C76.4506 16.0595 76.3003 16.0965 76.2194 16.175C76.1129 16.3048 76.0434 16.461 76.0183 16.627L75.0752 21.0051C75.0613 21.0722 75.0509 21.1288 75.0451 21.1762C75.0385 21.2194 75.035 21.2631 75.0347 21.3068C75.0285 21.3522 75.0345 21.3984 75.0522 21.4407C75.0699 21.483 75.0986 21.5198 75.1353 21.5472C75.2492 21.5965 75.3734 21.6171 75.4971 21.6073H82.3452L81.8632 23.9189L73.6293 23.9074Z" fill="white"/>
<path d="M84.2729 23.9074L87.3254 9.48767H90.1375L87.6063 21.4167H91.9845C92.1378 21.4323 92.2916 21.3911 92.4167 21.3011C92.5262 21.1757 92.599 21.0225 92.6271 20.8584L93.4916 16.7415C93.5113 16.6559 93.5244 16.569 93.5309 16.4814C93.5384 16.4342 93.5323 16.3859 93.5133 16.3421C93.4942 16.2983 93.4631 16.2608 93.4234 16.2341C93.3193 16.1878 93.2055 16.1672 93.0917 16.174H89.7156L90.238 13.7468H95.0173C96.0883 13.7468 96.6239 14.1952 96.6239 15.0921C96.6233 15.193 96.6167 15.2937 96.6042 15.3938C96.5903 15.5013 96.5707 15.6146 96.5441 15.7406L95.238 21.9252C95.0909 22.6087 94.8401 23.1096 94.4856 23.4278C94.1312 23.746 93.5918 23.9067 92.8675 23.9098L84.2729 23.9074Z" fill="white"/>
</g>
<defs>
<clipPath id="clip0_38_166">
<rect width="95.9766" height="23.3726" fill="white" transform="translate(0.648438 0.53479)"/>
</clipPath>
</defs>
</svg>
