<svg width="27" height="30" viewBox="0 0 27 30" fill="none" xmlns="http://www.w3.org/2000/svg">
<path d="M13.5 30C13.0807 30 12.6894 29.8898 12.3261 29.6968L8.6087 27.5195C8.04969 27.2164 8.32919 27.1061 8.49689 27.051C9.25155 26.8029 9.3913 26.7478 10.1739 26.3068C10.2578 26.2517 10.3696 26.2793 10.4534 26.3344L13.3043 28.0156C13.4161 28.0707 13.5559 28.0707 13.6398 28.0156L24.7919 21.6491C24.9037 21.5939 24.9596 21.4837 24.9596 21.3459V8.64033C24.9596 8.50253 24.9037 8.39228 24.7919 8.33716L13.6398 1.99816C13.528 1.94304 13.3882 1.94304 13.3043 1.99816L2.15217 8.33716C2.04037 8.39228 1.98447 8.53009 1.98447 8.64033V21.3459C1.98447 21.4561 2.04037 21.5939 2.15217 21.6491L5.19876 23.3854C6.84783 24.2122 7.88199 23.2476 7.88199 22.283V9.74276C7.88199 9.5774 8.02174 9.41203 8.21739 9.41203H9.64286C9.81056 9.41203 9.97826 9.54984 9.97826 9.74276V22.283C9.97826 24.4603 8.7764 25.7281 6.68012 25.7281C6.03727 25.7281 5.53416 25.7281 4.1087 25.039L1.17391 23.3854C0.447205 22.972 0 22.2003 0 21.3734V8.66789C0 7.84107 0.447205 7.06936 1.17391 6.65595L12.3261 0.289389C13.0248 -0.096463 13.9752 -0.096463 14.6739 0.289389L25.8261 6.65595C26.5528 7.06936 27 7.84107 27 8.66789V21.3734C27 22.2003 26.5528 22.972 25.8261 23.3854L14.6739 29.752C14.3106 29.9173 13.8913 30 13.5 30ZM16.9379 21.2632C12.0466 21.2632 11.0404 19.0583 11.0404 17.1842C11.0404 17.0188 11.1801 16.8535 11.3758 16.8535H12.8292C12.9969 16.8535 13.1366 16.9637 13.1366 17.1291C13.3602 18.5898 14.0031 19.3064 16.9658 19.3064C19.3137 19.3064 20.3199 18.7827 20.3199 17.5425C20.3199 16.8259 20.0404 16.3022 16.3789 15.944C13.3323 15.6408 11.4317 14.9793 11.4317 12.5815C11.4317 10.3491 13.3323 9.02618 16.5186 9.02618C20.0963 9.02618 21.8571 10.2389 22.0807 12.8847C22.0807 12.9674 22.0528 13.0501 21.9969 13.1328C21.941 13.1879 21.8571 13.243 21.7733 13.243H20.3199C20.1801 13.243 20.0404 13.1328 20.0124 12.9949C19.677 11.4791 18.8106 10.983 16.5186 10.983C13.9472 10.983 13.6398 11.865 13.6398 12.5264C13.6398 13.3257 14.0031 13.5737 17.4689 14.0147C20.9068 14.4557 22.528 15.0896 22.528 17.4598C22.5 19.8852 20.4876 21.2632 16.9379 21.2632Z" fill="#539E43"/>
</svg>
