<svg width="52" height="28" viewBox="0 0 52 28" fill="none" xmlns="http://www.w3.org/2000/svg">
<path d="M26 27.8367C40.3594 27.8367 52 21.6053 52 13.9184C52 6.23146 40.3594 0 26 0C11.6406 0 0 6.23146 0 13.9184C0 21.6053 11.6406 27.8367 26 27.8367Z" fill="#8993BE"/>
<path fill-rule="evenodd" clip-rule="evenodd" d="M7.30127 22.1595L10.1507 7.32535H16.7395C19.5887 7.50854 21.0134 8.97349 21.0134 11.5376C21.0134 15.9329 17.63 18.4968 14.6024 18.3136H11.3973L10.6849 22.1595H7.30127ZM12.1094 15.5667L12.9999 10.0725H15.315C16.5615 10.0725 17.4518 10.6218 17.4518 11.7206C17.2739 14.8341 15.8492 15.3835 14.2465 15.5667H12.1096H12.1094ZM20.3514 18.3136L23.2007 3.47968H26.5843L25.872 7.32535H29.0773C31.9267 7.50854 32.9952 8.97349 32.6391 10.805L31.3925 18.3136H27.8309L29.0775 11.5376C29.2554 10.6218 29.2554 10.0725 28.009 10.0725H25.3377L23.7351 18.3136H20.3514ZM31.1644 22.1595L34.0136 7.32535H40.6026C43.452 7.50854 44.8767 8.97349 44.8767 11.5376C44.8767 15.9329 41.4931 18.4968 38.4657 18.3136H35.2602L34.5478 22.1595H31.1644ZM35.9724 15.5667L36.8629 10.0725H39.1781C40.4247 10.0725 41.3149 10.6218 41.3149 11.7206C41.137 14.8341 39.7123 15.3835 38.1096 15.5667H35.9726H35.9724Z" fill="#232531"/>
</svg>
