<svg width="32" height="30" viewBox="0 0 32 30" fill="none" xmlns="http://www.w3.org/2000/svg">
<path fill-rule="evenodd" clip-rule="evenodd" d="M24.9675 9.26144C28.9721 10.5496 31.5842 12.6268 31.5842 14.8186C31.5842 17.0037 28.985 19.0809 25.006 20.369C25.9365 24.6448 25.5322 28.0505 23.7288 29.1431C23.3053 29.3994 22.8175 29.5208 22.2784 29.5208C20.5135 29.5208 18.2031 28.2124 15.8671 25.9329C13.531 28.2259 11.2206 29.5477 9.45573 29.5477C8.91664 29.5477 8.42889 29.4263 8.01173 29.1701C6.20192 28.0775 5.79119 24.665 6.71534 20.3757C2.71066 19.0876 0.0986328 17.0104 0.0986328 14.8186C0.0986328 12.6335 2.69783 10.5631 6.68967 9.26818C5.7591 4.99242 6.16342 1.58664 7.96681 0.494093C8.39038 0.237817 8.87813 0.116423 9.41722 0.116423V0.109679C11.1821 0.109679 13.4925 1.41804 15.8286 3.69755C18.1646 1.40455 20.475 0.0827026 22.2399 0.0827026V0.0894525C22.7701 0.0904246 23.2556 0.211871 23.6711 0.467117C25.4809 1.55966 25.8916 4.97218 24.9675 9.26144ZM22.2335 1.58665C20.8987 1.59023 18.9378 2.70944 16.849 4.74963C17.7539 5.74101 18.6524 6.87402 19.5188 8.12168C20.9628 8.28354 22.3362 8.53308 23.5941 8.85679C23.7352 8.17564 23.8508 7.50797 23.9214 6.87402C24.2166 4.29777 23.8379 2.29477 22.9651 1.76873C22.7662 1.65408 22.5287 1.59338 22.2335 1.59338V1.58665ZM14.8081 4.75637C12.716 2.72639 10.7457 1.61362 9.41722 1.61362V1.62036C9.12201 1.62036 8.87171 1.67431 8.67918 1.79571C7.81278 2.32849 7.44055 4.33149 7.74219 6.90774C7.8192 7.53495 7.9283 8.18913 8.07591 8.86354C9.33379 8.53308 10.7072 8.28354 12.1576 8.12168C13.0112 6.87402 13.9097 5.74776 14.8081 4.75637ZM22.3618 12.9842C22.6956 12.0872 22.9908 11.1903 23.2282 10.3203C22.3875 10.1045 21.5083 9.92911 20.597 9.78748C20.9114 10.3 21.2259 10.8261 21.5211 11.3656C21.8228 11.9051 22.0987 12.4447 22.3618 12.9842ZM18.7422 20.079C19.2749 19.2764 19.7883 18.4132 20.2889 17.5027C20.7702 16.6193 21.2131 15.7156 21.6174 14.8118C21.2131 13.9081 20.7702 13.0112 20.2825 12.1277C19.7819 11.224 19.2621 10.3675 18.7294 9.56493C17.7796 9.484 16.8105 9.43679 15.8414 9.43679C14.8659 9.43679 13.8968 9.484 12.9406 9.57167C12.4079 10.3742 11.8945 11.2375 11.3939 12.1479C10.9126 13.0314 10.4633 13.9351 10.0654 14.8388C10.4697 15.7425 10.9126 16.6395 11.4003 17.523C11.9009 18.4267 12.4207 19.2832 12.9534 20.0857C13.9032 20.1667 14.8723 20.2139 15.8414 20.2139C16.8169 20.2139 17.786 20.1667 18.7422 20.079ZM23.2475 19.3102C23.0036 18.4334 22.7084 17.5297 22.3618 16.626C22.0987 17.1655 21.8228 17.7118 21.5275 18.2513C21.2323 18.7976 20.9179 19.3304 20.6034 19.8497C21.5211 19.7081 22.4068 19.526 23.2475 19.3102ZM14.0701 21.6639C14.6605 22.4529 15.2574 23.1745 15.8542 23.822C16.4447 23.1745 17.0415 22.4529 17.6191 21.6639C17.0351 21.6976 16.4383 21.7111 15.835 21.7111C15.2381 21.7111 14.6477 21.6908 14.0701 21.6639ZM8.44814 19.3169C9.28887 19.5327 10.1681 19.7081 11.0794 19.8497C10.765 19.3371 10.4569 18.8111 10.1553 18.2716C9.85363 17.732 9.57767 17.1925 9.31454 16.653C8.98081 17.55 8.6856 18.4469 8.44814 19.3169ZM17.6063 7.97331C17.0159 7.18425 16.419 6.46263 15.8221 5.8152C15.2317 6.46263 14.6349 7.18425 14.0573 7.97331C14.6413 7.93959 15.2381 7.92611 15.8414 7.92611C16.4383 7.92611 17.0287 7.94634 17.6063 7.97331ZM10.1488 11.3858C10.4441 10.8396 10.7585 10.3068 11.073 9.78748C10.1553 9.92911 9.26961 10.1112 8.42889 10.3203C8.67276 11.197 8.96798 12.1007 9.31454 13.0044C9.57767 12.4649 9.85363 11.9254 10.1488 11.3858ZM1.52338 14.8186C1.52338 15.8774 2.99304 17.2127 5.26493 18.2311C5.82328 18.4806 6.42655 18.7099 7.06191 18.919C7.4213 17.6039 7.89621 16.2349 8.48665 14.8321C7.8898 13.4226 7.40846 12.0468 7.04265 10.7249C6.42013 10.934 5.81686 11.1565 5.26493 11.4061C2.99304 12.4177 1.52338 13.7598 1.52338 14.8186ZM7.76144 22.7632C7.46622 25.3394 7.84487 27.3424 8.71769 27.8684C8.91022 27.9831 9.15409 28.0438 9.44289 28.0505C10.7778 28.0505 12.7416 26.931 14.8338 24.8875C13.9289 23.8962 13.0304 22.7632 12.164 21.5155C10.72 21.3536 9.34663 21.1041 8.08875 20.7804C7.94756 21.4615 7.83204 22.1292 7.76144 22.7632ZM23.0036 27.8415C23.87 27.3087 24.2423 25.3057 23.9406 22.7294C23.87 22.1022 23.7545 21.4481 23.6069 20.7669C22.349 21.0974 20.9756 21.3469 19.5252 21.5087C18.6716 22.7564 17.7732 23.8827 16.8747 24.8741C18.9669 26.904 20.9371 28.0168 22.2656 28.0168C22.5608 28.0168 22.8111 27.9629 23.0036 27.8415ZM24.6337 18.9123C25.2563 18.7032 25.8595 18.4806 26.4115 18.2311C28.6833 17.2195 30.153 15.8774 30.1594 14.8186C30.1594 13.7598 28.6898 12.4244 26.4179 11.4061C25.8531 11.1565 25.2498 10.9272 24.6145 10.7182C24.2551 12.0333 23.7802 13.4023 23.1897 14.8051C23.7866 16.2146 24.2679 17.5904 24.6337 18.9123ZM18.768 14.8186C18.768 16.5208 17.4549 17.9007 15.8351 17.9007C14.2153 17.9007 12.9021 16.5208 12.9021 14.8186C12.9021 13.1164 14.2153 11.7365 15.8351 11.7365C17.4549 11.7365 18.768 13.1164 18.768 14.8186Z" fill="#61DAFB"/>
</svg>
