<svg width="33" height="30" viewBox="0 0 33 30" fill="none" xmlns="http://www.w3.org/2000/svg">
<path fill-rule="evenodd" clip-rule="evenodd" d="M25.486 9.26144C29.4907 10.5496 32.1027 12.6268 32.1027 14.8186C32.1027 17.0037 29.5035 19.0809 25.5245 20.369C26.4551 24.6448 26.0508 28.0505 24.2474 29.1431C23.8238 29.3994 23.3361 29.5208 22.797 29.5208C21.0321 29.5208 18.7217 28.2124 16.3856 25.9329C14.0496 28.2259 11.7392 29.5477 9.97428 29.5477C9.43519 29.5477 8.94744 29.4263 8.53029 29.1701C6.72048 28.0775 6.30974 24.665 7.2339 20.3757C3.22922 19.0876 0.617188 17.0104 0.617188 14.8186C0.617188 12.6335 3.21638 10.5631 7.20823 9.26818C6.27765 4.99242 6.68197 1.58664 8.48536 0.494093C8.90894 0.237817 9.39669 0.116423 9.93578 0.116423V0.109679C11.7007 0.109679 14.0111 1.41804 16.3471 3.69755C18.6832 1.40455 20.9936 0.0827026 22.7585 0.0827026V0.0894525C23.2886 0.0904246 23.7741 0.211871 24.1896 0.467117C25.9994 1.55966 26.4102 4.97218 25.486 9.26144ZM22.752 1.58665C21.4173 1.59023 19.4564 2.70944 17.3675 4.74963C18.2724 5.74101 19.1709 6.87402 20.0373 8.12168C21.4813 8.28354 22.8547 8.53308 24.1126 8.85679C24.2538 8.17564 24.3693 7.50797 24.4399 6.87402C24.7351 4.29777 24.3565 2.29477 23.4837 1.76873C23.2847 1.65408 23.0473 1.59338 22.752 1.59338V1.58665ZM15.3267 4.75637C13.2345 2.72639 11.2643 1.61362 9.93578 1.61362V1.62036C9.64056 1.62036 9.39027 1.67431 9.19773 1.79571C8.33134 2.32849 7.95911 4.33149 8.26074 6.90774C8.33775 7.53495 8.44686 8.18913 8.59447 8.86354C9.85235 8.53308 11.2257 8.28354 12.6762 8.12168C13.5297 6.87402 14.4282 5.74776 15.3267 4.75637ZM22.8804 12.9842C23.2141 12.0872 23.5093 11.1903 23.7468 10.3203C22.9061 10.1045 22.0268 9.92911 21.1155 9.78748C21.43 10.3 21.7445 10.8261 22.0397 11.3656C22.3413 11.9051 22.6173 12.4447 22.8804 12.9842ZM19.2608 20.079C19.7935 19.2764 20.3069 18.4132 20.8075 17.5027C21.2888 16.6193 21.7316 15.7156 22.1359 14.8118C21.7316 13.9081 21.2888 13.0112 20.801 12.1277C20.3005 11.224 19.7806 10.3675 19.2479 9.56493C18.2981 9.484 17.329 9.43679 16.36 9.43679C15.3845 9.43679 14.4154 9.484 13.4591 9.57167C12.9265 10.3742 12.413 11.2375 11.9124 12.1479C11.4311 13.0314 10.9819 13.9351 10.584 14.8388C10.9883 15.7425 11.4311 16.6395 11.9189 17.523C12.4195 18.4267 12.9393 19.2832 13.472 20.0857C14.4218 20.1667 15.3909 20.2139 16.36 20.2139C17.3355 20.2139 18.3045 20.1667 19.2608 20.079ZM23.7661 19.3102C23.5222 18.4334 23.227 17.5297 22.8804 16.626C22.6173 17.1655 22.3413 17.7118 22.0461 18.2513C21.7509 18.7976 21.4364 19.3304 21.1219 19.8497C22.0397 19.7081 22.9253 19.526 23.7661 19.3102ZM14.5887 21.6639C15.1791 22.4529 15.7759 23.1745 16.3728 23.822C16.9632 23.1745 17.5601 22.4529 18.1377 21.6639C17.5537 21.6976 16.9568 21.7111 16.3535 21.7111C15.7567 21.7111 15.1663 21.6908 14.5887 21.6639ZM8.96669 19.3169C9.80742 19.5327 10.6867 19.7081 11.598 19.8497C11.2835 19.3371 10.9755 18.8111 10.6738 18.2716C10.3722 17.732 10.0962 17.1925 9.83309 16.653C9.49937 17.55 9.20415 18.4469 8.96669 19.3169ZM18.1248 7.97331C17.5344 7.18425 16.9376 6.46263 16.3407 5.8152C15.7503 6.46263 15.1534 7.18425 14.5758 7.97331C15.1598 7.93959 15.7567 7.92611 16.36 7.92611C16.9568 7.92611 17.5472 7.94634 18.1248 7.97331ZM10.6674 11.3858C10.9626 10.8396 11.2771 10.3068 11.5916 9.78748C10.6738 9.92911 9.78817 10.1112 8.94744 10.3203C9.19132 11.197 9.48653 12.1007 9.83309 13.0044C10.0962 12.4649 10.3722 11.9254 10.6674 11.3858ZM2.04193 14.8186C2.04193 15.8774 3.5116 17.2127 5.78349 18.2311C6.34183 18.4806 6.9451 18.7099 7.58046 18.919C7.93985 17.6039 8.41477 16.2349 9.0052 14.8321C8.40835 13.4226 7.92702 12.0468 7.56121 10.7249C6.93868 10.934 6.33541 11.1565 5.78349 11.4061C3.5116 12.4177 2.04193 13.7598 2.04193 14.8186ZM8.28 22.7632C7.98478 25.3394 8.36343 27.3424 9.23624 27.8684C9.42877 27.9831 9.67265 28.0438 9.96145 28.0505C11.2963 28.0505 13.2602 26.931 15.3524 24.8875C14.4475 23.8962 13.549 22.7632 12.6826 21.5155C11.2386 21.3536 9.86518 21.1041 8.6073 20.7804C8.46611 21.4615 8.35059 22.1292 8.28 22.7632ZM23.5222 27.8415C24.3886 27.3087 24.7608 25.3057 24.4592 22.7294C24.3886 22.1022 24.2731 21.4481 24.1254 20.7669C22.8676 21.0974 21.4942 21.3469 20.0438 21.5087C19.1902 22.7564 18.2917 23.8827 17.3932 24.8741C19.4854 26.904 21.4557 28.0168 22.7841 28.0168C23.0794 28.0168 23.3296 27.9629 23.5222 27.8415ZM25.1523 18.9123C25.7748 18.7032 26.3781 18.4806 26.93 18.2311C29.2019 17.2195 30.6716 15.8774 30.678 14.8186C30.678 13.7598 29.2083 12.4244 26.9364 11.4061C26.3717 11.1565 25.7684 10.9272 25.133 10.7182C24.7736 12.0333 24.2987 13.4023 23.7083 14.8051C24.3051 16.2146 24.7865 17.5904 25.1523 18.9123ZM19.2865 14.8186C19.2865 16.5208 17.9734 17.9007 16.3536 17.9007C14.7338 17.9007 13.4207 16.5208 13.4207 14.8186C13.4207 13.1164 14.7338 11.7365 16.3536 11.7365C17.9734 11.7365 19.2865 13.1164 19.2865 14.8186Z" fill="#8D71CC"/>
</svg>
